<mxfile host="app.diagrams.net" modified="2023-11-14T09:25:34.473Z" agent="Mozilla/5.0 (X11; Ubuntu; Linux x86_64; rv:109.0) Gecko/20100101 Firefox/119.0" etag="ahBWj0HNQbVSGuv4opID" version="22.1.0" type="google">
  <diagram name="Page-1" id="vVGouduhvMDsBh8Jaitz">
    <mxGraphModel grid="1" page="1" gridSize="10" guides="1" tooltips="1" connect="1" arrows="1" fold="1" pageScale="1" pageWidth="850" pageHeight="1100" math="0" shadow="0">
      <root>
        <mxCell id="0" />
        <mxCell id="1" parent="0" />
        <mxCell id="8raEOtWmdOHg90D29M2Z-1" value="" style="rounded=0;whiteSpace=wrap;html=1;" vertex="1" parent="1">
          <mxGeometry y="-10" width="1350" height="720" as="geometry" />
        </mxCell>
        <mxCell id="nirSSKOJx96WIa5GPOF7-1" value="" style="rounded=0;whiteSpace=wrap;html=1;fillColor=#60a917;fontColor=#ffffff;strokeColor=#2D7600;" vertex="1" parent="1">
          <mxGeometry x="2" y="56" width="230" height="650" as="geometry" />
        </mxCell>
        <mxCell id="nirSSKOJx96WIa5GPOF7-5" value="&amp;nbsp;&amp;nbsp;&amp;nbsp;&amp;nbsp;&amp;nbsp; &lt;font style=&quot;font-size: 14px;&quot;&gt;&lt;b&gt;Dashboard&lt;/b&gt;&lt;/font&gt;" style="rounded=0;whiteSpace=wrap;html=1;align=left;fillColor=#CCFFE6;gradientColor=#97d077;strokeColor=#82b366;" vertex="1" parent="1">
          <mxGeometry x="12" y="84" width="210" height="40" as="geometry" />
        </mxCell>
        <mxCell id="nirSSKOJx96WIa5GPOF7-6" value="&lt;div align=&quot;left&quot;&gt;&lt;font style=&quot;font-size: 14px;&quot;&gt;&lt;b&gt;&amp;nbsp;&amp;nbsp;&amp;nbsp;&amp;nbsp; Station Owners&lt;/b&gt;&lt;/font&gt;&lt;/div&gt;" style="rounded=0;whiteSpace=wrap;html=1;align=left;" vertex="1" parent="1">
          <mxGeometry x="12" y="141" width="210" height="40" as="geometry" />
        </mxCell>
        <mxCell id="nirSSKOJx96WIa5GPOF7-7" value="&amp;nbsp;&amp;nbsp;&amp;nbsp;&amp;nbsp;&amp;nbsp; &lt;font style=&quot;font-size: 14px;&quot;&gt;&lt;b&gt;Customers&lt;/b&gt;&lt;/font&gt;" style="rounded=0;whiteSpace=wrap;html=1;align=left;" vertex="1" parent="1">
          <mxGeometry x="13" y="199" width="210" height="40" as="geometry" />
        </mxCell>
        <mxCell id="nirSSKOJx96WIa5GPOF7-10" value="&lt;font size=&quot;1&quot;&gt;&lt;b&gt;&lt;font style=&quot;font-size: 22px;&quot;&gt;Onboard Station Owners&lt;/font&gt;&lt;/b&gt;&lt;/font&gt;" style="text;html=1;strokeColor=none;fillColor=none;align=center;verticalAlign=middle;whiteSpace=wrap;rounded=0;" vertex="1" parent="1">
          <mxGeometry x="360" y="580" width="320" height="50" as="geometry" />
        </mxCell>
        <mxCell id="nirSSKOJx96WIa5GPOF7-11" value="&lt;font style=&quot;font-size: 13px;&quot;&gt;List of Onboarded Station Owners&lt;/font&gt;" style="text;html=1;strokeColor=none;fillColor=none;align=center;verticalAlign=middle;whiteSpace=wrap;rounded=0;" vertex="1" parent="1">
          <mxGeometry x="390" y="620" width="240" height="30" as="geometry" />
        </mxCell>
        <mxCell id="nirSSKOJx96WIa5GPOF7-12" value="&lt;font size=&quot;1&quot;&gt;&lt;b&gt;&lt;font style=&quot;font-size: 22px;&quot;&gt;Onboard Station Customers&lt;br&gt;&lt;/font&gt;&lt;/b&gt;&lt;/font&gt;" style="text;html=1;strokeColor=none;fillColor=none;align=center;verticalAlign=middle;whiteSpace=wrap;rounded=0;" vertex="1" parent="1">
          <mxGeometry x="890" y="590" width="310" height="40" as="geometry" />
        </mxCell>
        <mxCell id="nirSSKOJx96WIa5GPOF7-13" value="&lt;font style=&quot;font-size: 13px;&quot;&gt;List of Onboarded Station Customers&lt;br&gt;&lt;/font&gt;" style="text;whiteSpace=wrap;html=1;" vertex="1" parent="1">
          <mxGeometry x="940" y="620" width="230" height="40" as="geometry" />
        </mxCell>
        <mxCell id="nirSSKOJx96WIa5GPOF7-19" value="" style="ellipse;whiteSpace=wrap;html=1;aspect=fixed;fillColor=#dae8fc;strokeColor=#6c8ebf;" vertex="1" parent="1">
          <mxGeometry x="350" y="160" width="330" height="330" as="geometry" />
        </mxCell>
        <mxCell id="nirSSKOJx96WIa5GPOF7-22" value="" style="endArrow=none;html=1;rounded=0;exitX=0.476;exitY=0.006;exitDx=0;exitDy=0;exitPerimeter=0;" edge="1" parent="1" source="nirSSKOJx96WIa5GPOF7-19">
          <mxGeometry width="50" height="50" relative="1" as="geometry">
            <mxPoint x="460" y="330" as="sourcePoint" />
            <mxPoint x="510" y="320" as="targetPoint" />
          </mxGeometry>
        </mxCell>
        <mxCell id="nirSSKOJx96WIa5GPOF7-23" value="" style="endArrow=none;html=1;rounded=0;" edge="1" parent="1">
          <mxGeometry width="50" height="50" relative="1" as="geometry">
            <mxPoint x="510" y="320" as="sourcePoint" />
            <mxPoint x="680" y="320" as="targetPoint" />
          </mxGeometry>
        </mxCell>
        <mxCell id="nirSSKOJx96WIa5GPOF7-24" value="" style="endArrow=none;html=1;rounded=0;exitX=0.897;exitY=0.809;exitDx=0;exitDy=0;exitPerimeter=0;" edge="1" parent="1" source="nirSSKOJx96WIa5GPOF7-19">
          <mxGeometry width="50" height="50" relative="1" as="geometry">
            <mxPoint x="650" y="440" as="sourcePoint" />
            <mxPoint x="510" y="320" as="targetPoint" />
          </mxGeometry>
        </mxCell>
        <mxCell id="nirSSKOJx96WIa5GPOF7-26" value="" style="endArrow=none;html=1;rounded=0;exitX=0.418;exitY=0.988;exitDx=0;exitDy=0;exitPerimeter=0;" edge="1" parent="1" source="nirSSKOJx96WIa5GPOF7-19">
          <mxGeometry width="50" height="50" relative="1" as="geometry">
            <mxPoint x="460" y="380" as="sourcePoint" />
            <mxPoint x="510" y="320" as="targetPoint" />
          </mxGeometry>
        </mxCell>
        <mxCell id="nirSSKOJx96WIa5GPOF7-27" value="" style="endArrow=none;html=1;rounded=0;exitX=0.067;exitY=0.733;exitDx=0;exitDy=0;exitPerimeter=0;" edge="1" parent="1" source="nirSSKOJx96WIa5GPOF7-19">
          <mxGeometry width="50" height="50" relative="1" as="geometry">
            <mxPoint x="460" y="380" as="sourcePoint" />
            <mxPoint x="510" y="320" as="targetPoint" />
          </mxGeometry>
        </mxCell>
        <mxCell id="nirSSKOJx96WIa5GPOF7-28" value="" style="endArrow=none;html=1;rounded=0;exitX=0.067;exitY=0.255;exitDx=0;exitDy=0;exitPerimeter=0;" edge="1" parent="1" source="nirSSKOJx96WIa5GPOF7-19">
          <mxGeometry width="50" height="50" relative="1" as="geometry">
            <mxPoint x="370" y="240" as="sourcePoint" />
            <mxPoint x="510" y="320" as="targetPoint" />
          </mxGeometry>
        </mxCell>
        <mxCell id="nirSSKOJx96WIa5GPOF7-29" value="" style="endArrow=none;html=1;rounded=0;" edge="1" parent="1">
          <mxGeometry width="50" height="50" relative="1" as="geometry">
            <mxPoint x="620" y="200" as="sourcePoint" />
            <mxPoint x="640" y="180" as="targetPoint" />
          </mxGeometry>
        </mxCell>
        <mxCell id="nirSSKOJx96WIa5GPOF7-30" value="" style="endArrow=none;html=1;rounded=0;exitX=0.97;exitY=0.667;exitDx=0;exitDy=0;exitPerimeter=0;" edge="1" parent="1" source="nirSSKOJx96WIa5GPOF7-19">
          <mxGeometry width="50" height="50" relative="1" as="geometry">
            <mxPoint x="650" y="430" as="sourcePoint" />
            <mxPoint x="690" y="390" as="targetPoint" />
          </mxGeometry>
        </mxCell>
        <mxCell id="nirSSKOJx96WIa5GPOF7-31" value="" style="endArrow=none;html=1;rounded=0;" edge="1" parent="1">
          <mxGeometry width="50" height="50" relative="1" as="geometry">
            <mxPoint x="580" y="500" as="sourcePoint" />
            <mxPoint x="570" y="480" as="targetPoint" />
          </mxGeometry>
        </mxCell>
        <mxCell id="nirSSKOJx96WIa5GPOF7-32" value="" style="endArrow=none;html=1;rounded=0;entryX=0.224;entryY=0.912;entryDx=0;entryDy=0;entryPerimeter=0;" edge="1" parent="1" target="nirSSKOJx96WIa5GPOF7-19">
          <mxGeometry width="50" height="50" relative="1" as="geometry">
            <mxPoint x="410" y="480" as="sourcePoint" />
            <mxPoint x="420" y="460" as="targetPoint" />
          </mxGeometry>
        </mxCell>
        <mxCell id="nirSSKOJx96WIa5GPOF7-33" value="" style="endArrow=none;html=1;rounded=0;" edge="1" parent="1" target="nirSSKOJx96WIa5GPOF7-19">
          <mxGeometry width="50" height="50" relative="1" as="geometry">
            <mxPoint x="425" y="185" as="sourcePoint" />
            <mxPoint x="400" y="140" as="targetPoint" />
          </mxGeometry>
        </mxCell>
        <mxCell id="nirSSKOJx96WIa5GPOF7-35" value="" style="endArrow=none;html=1;rounded=0;exitX=0.221;exitY=0.085;exitDx=0;exitDy=0;exitPerimeter=0;" edge="1" parent="1" source="nirSSKOJx96WIa5GPOF7-19">
          <mxGeometry width="50" height="50" relative="1" as="geometry">
            <mxPoint x="420" y="190" as="sourcePoint" />
            <mxPoint x="410" y="170" as="targetPoint" />
          </mxGeometry>
        </mxCell>
        <mxCell id="nirSSKOJx96WIa5GPOF7-36" value="" style="endArrow=none;html=1;rounded=0;" edge="1" parent="1">
          <mxGeometry width="50" height="50" relative="1" as="geometry">
            <mxPoint x="330" y="320" as="sourcePoint" />
            <mxPoint x="350" y="320" as="targetPoint" />
          </mxGeometry>
        </mxCell>
        <mxCell id="nirSSKOJx96WIa5GPOF7-37" value="400" style="text;html=1;strokeColor=none;fillColor=none;align=center;verticalAlign=middle;whiteSpace=wrap;rounded=0;" vertex="1" parent="1">
          <mxGeometry x="620" y="160" width="60" height="30" as="geometry" />
        </mxCell>
        <mxCell id="nirSSKOJx96WIa5GPOF7-38" value="300" style="text;html=1;strokeColor=none;fillColor=none;align=center;verticalAlign=middle;whiteSpace=wrap;rounded=0;" vertex="1" parent="1">
          <mxGeometry x="370" y="145" width="60" height="30" as="geometry" />
        </mxCell>
        <mxCell id="nirSSKOJx96WIa5GPOF7-39" value="189" style="text;html=1;strokeColor=none;fillColor=none;align=center;verticalAlign=middle;whiteSpace=wrap;rounded=0;" vertex="1" parent="1">
          <mxGeometry x="680" y="390" width="60" height="30" as="geometry" />
        </mxCell>
        <mxCell id="nirSSKOJx96WIa5GPOF7-40" value="300" style="text;html=1;strokeColor=none;fillColor=none;align=center;verticalAlign=middle;whiteSpace=wrap;rounded=0;" vertex="1" parent="1">
          <mxGeometry x="280" y="310" width="60" height="30" as="geometry" />
        </mxCell>
        <mxCell id="nirSSKOJx96WIa5GPOF7-41" value="278" style="text;html=1;strokeColor=none;fillColor=none;align=center;verticalAlign=middle;whiteSpace=wrap;rounded=0;" vertex="1" parent="1">
          <mxGeometry x="560" y="500" width="60" height="30" as="geometry" />
        </mxCell>
        <mxCell id="nirSSKOJx96WIa5GPOF7-42" value="200" style="text;html=1;strokeColor=none;fillColor=none;align=center;verticalAlign=middle;whiteSpace=wrap;rounded=0;" vertex="1" parent="1">
          <mxGeometry x="370" y="480" width="60" height="30" as="geometry" />
        </mxCell>
        <mxCell id="nirSSKOJx96WIa5GPOF7-43" value="" style="ellipse;whiteSpace=wrap;html=1;aspect=fixed;fillColor=#dae8fc;strokeColor=#6c8ebf;" vertex="1" parent="1">
          <mxGeometry x="915" y="160" width="330" height="330" as="geometry" />
        </mxCell>
        <mxCell id="nirSSKOJx96WIa5GPOF7-57" value="" style="endArrow=none;html=1;rounded=0;entryX=1;entryY=0.5;entryDx=0;entryDy=0;" edge="1" parent="1" target="nirSSKOJx96WIa5GPOF7-43">
          <mxGeometry width="50" height="50" relative="1" as="geometry">
            <mxPoint x="1090" y="325" as="sourcePoint" />
            <mxPoint x="1250" y="320" as="targetPoint" />
          </mxGeometry>
        </mxCell>
        <mxCell id="nirSSKOJx96WIa5GPOF7-58" value="" style="endArrow=none;html=1;rounded=0;entryX=0.5;entryY=0;entryDx=0;entryDy=0;" edge="1" parent="1" target="nirSSKOJx96WIa5GPOF7-43">
          <mxGeometry width="50" height="50" relative="1" as="geometry">
            <mxPoint x="1090" y="325" as="sourcePoint" />
            <mxPoint x="1150" y="270" as="targetPoint" />
          </mxGeometry>
        </mxCell>
        <mxCell id="nirSSKOJx96WIa5GPOF7-59" value="" style="endArrow=none;html=1;rounded=0;exitX=0.918;exitY=0.785;exitDx=0;exitDy=0;exitPerimeter=0;" edge="1" parent="1" source="nirSSKOJx96WIa5GPOF7-43">
          <mxGeometry width="50" height="50" relative="1" as="geometry">
            <mxPoint x="1040" y="370" as="sourcePoint" />
            <mxPoint x="1090" y="325" as="targetPoint" />
          </mxGeometry>
        </mxCell>
        <mxCell id="nirSSKOJx96WIa5GPOF7-60" value="" style="endArrow=none;html=1;rounded=0;exitX=0.43;exitY=0.997;exitDx=0;exitDy=0;exitPerimeter=0;" edge="1" parent="1" source="nirSSKOJx96WIa5GPOF7-43">
          <mxGeometry width="50" height="50" relative="1" as="geometry">
            <mxPoint x="1040" y="370" as="sourcePoint" />
            <mxPoint x="1090" y="325" as="targetPoint" />
          </mxGeometry>
        </mxCell>
        <mxCell id="nirSSKOJx96WIa5GPOF7-61" value="" style="endArrow=none;html=1;rounded=0;exitX=0.064;exitY=0.748;exitDx=0;exitDy=0;exitPerimeter=0;" edge="1" parent="1" source="nirSSKOJx96WIa5GPOF7-43">
          <mxGeometry width="50" height="50" relative="1" as="geometry">
            <mxPoint x="1040" y="370" as="sourcePoint" />
            <mxPoint x="1090" y="325" as="targetPoint" />
          </mxGeometry>
        </mxCell>
        <mxCell id="nirSSKOJx96WIa5GPOF7-62" value="" style="endArrow=none;html=1;rounded=0;exitX=0.091;exitY=0.2;exitDx=0;exitDy=0;exitPerimeter=0;" edge="1" parent="1" source="nirSSKOJx96WIa5GPOF7-43">
          <mxGeometry width="50" height="50" relative="1" as="geometry">
            <mxPoint x="970" y="280" as="sourcePoint" />
            <mxPoint x="1090" y="325" as="targetPoint" />
          </mxGeometry>
        </mxCell>
        <mxCell id="nirSSKOJx96WIa5GPOF7-63" value="" style="endArrow=none;html=1;rounded=0;" edge="1" parent="1">
          <mxGeometry width="50" height="50" relative="1" as="geometry">
            <mxPoint x="1200" y="210" as="sourcePoint" />
            <mxPoint x="1220" y="190" as="targetPoint" />
          </mxGeometry>
        </mxCell>
        <mxCell id="nirSSKOJx96WIa5GPOF7-65" value="" style="endArrow=none;html=1;rounded=0;exitX=0.273;exitY=0.055;exitDx=0;exitDy=0;exitPerimeter=0;" edge="1" parent="1" source="nirSSKOJx96WIa5GPOF7-43">
          <mxGeometry width="50" height="50" relative="1" as="geometry">
            <mxPoint x="1020" y="175" as="sourcePoint" />
            <mxPoint x="1000" y="160" as="targetPoint" />
          </mxGeometry>
        </mxCell>
        <mxCell id="nirSSKOJx96WIa5GPOF7-66" value="" style="endArrow=none;html=1;rounded=0;" edge="1" parent="1">
          <mxGeometry width="50" height="50" relative="1" as="geometry">
            <mxPoint x="900" y="310" as="sourcePoint" />
            <mxPoint x="920" y="310" as="targetPoint" />
          </mxGeometry>
        </mxCell>
        <mxCell id="nirSSKOJx96WIa5GPOF7-68" value="" style="endArrow=none;html=1;rounded=0;" edge="1" parent="1">
          <mxGeometry width="50" height="50" relative="1" as="geometry">
            <mxPoint x="980" y="480" as="sourcePoint" />
            <mxPoint x="990" y="460" as="targetPoint" />
          </mxGeometry>
        </mxCell>
        <mxCell id="nirSSKOJx96WIa5GPOF7-69" value="" style="endArrow=none;html=1;rounded=0;entryX=0.739;entryY=0.936;entryDx=0;entryDy=0;entryPerimeter=0;" edge="1" parent="1" target="nirSSKOJx96WIa5GPOF7-43">
          <mxGeometry width="50" height="50" relative="1" as="geometry">
            <mxPoint x="1180" y="490" as="sourcePoint" />
            <mxPoint x="1210" y="490" as="targetPoint" />
          </mxGeometry>
        </mxCell>
        <mxCell id="nirSSKOJx96WIa5GPOF7-70" value="" style="endArrow=none;html=1;rounded=0;exitX=0.985;exitY=0.642;exitDx=0;exitDy=0;exitPerimeter=0;" edge="1" parent="1" source="nirSSKOJx96WIa5GPOF7-43">
          <mxGeometry width="50" height="50" relative="1" as="geometry">
            <mxPoint x="1240" y="380" as="sourcePoint" />
            <mxPoint x="1270" y="380" as="targetPoint" />
          </mxGeometry>
        </mxCell>
        <mxCell id="nirSSKOJx96WIa5GPOF7-71" value="400" style="text;html=1;strokeColor=none;fillColor=none;align=center;verticalAlign=middle;whiteSpace=wrap;rounded=0;" vertex="1" parent="1">
          <mxGeometry x="1210" y="170" width="60" height="30" as="geometry" />
        </mxCell>
        <mxCell id="nirSSKOJx96WIa5GPOF7-72" value="300" style="text;html=1;strokeColor=none;fillColor=none;align=center;verticalAlign=middle;whiteSpace=wrap;rounded=0;" vertex="1" parent="1">
          <mxGeometry x="960" y="140" width="60" height="30" as="geometry" />
        </mxCell>
        <mxCell id="nirSSKOJx96WIa5GPOF7-73" value="300" style="text;html=1;strokeColor=none;fillColor=none;align=center;verticalAlign=middle;whiteSpace=wrap;rounded=0;" vertex="1" parent="1">
          <mxGeometry x="850" y="300" width="60" height="30" as="geometry" />
        </mxCell>
        <mxCell id="nirSSKOJx96WIa5GPOF7-74" value="200" style="text;html=1;strokeColor=none;fillColor=none;align=center;verticalAlign=middle;whiteSpace=wrap;rounded=0;" vertex="1" parent="1">
          <mxGeometry x="940" y="480" width="60" height="30" as="geometry" />
        </mxCell>
        <mxCell id="nirSSKOJx96WIa5GPOF7-75" value="278" style="text;html=1;strokeColor=none;fillColor=none;align=center;verticalAlign=middle;whiteSpace=wrap;rounded=0;" vertex="1" parent="1">
          <mxGeometry x="1170" y="490" width="60" height="30" as="geometry" />
        </mxCell>
        <mxCell id="nirSSKOJx96WIa5GPOF7-76" value="189" style="text;html=1;strokeColor=none;fillColor=none;align=center;verticalAlign=middle;whiteSpace=wrap;rounded=0;" vertex="1" parent="1">
          <mxGeometry x="1260" y="380" width="60" height="30" as="geometry" />
        </mxCell>
        <mxCell id="vbUF4UBIb49mHJWvgmol-1" value="&lt;div align=&quot;left&quot;&gt;&lt;font color=&quot;#000000&quot;&gt;&lt;b&gt;&lt;font style=&quot;font-size: 23px;&quot;&gt;Book My Charge Station&lt;/font&gt;&lt;/b&gt;&lt;br&gt;&lt;/font&gt;&lt;/div&gt;" style="rounded=0;whiteSpace=wrap;html=1;align=left;fillColor=#60a917;fontColor=#ffffff;strokeColor=#2D7600;strokeWidth=2;" vertex="1" parent="1">
          <mxGeometry x="3" y="-7" width="1347" height="60" as="geometry" />
        </mxCell>
        <mxCell id="7BZkgLQpwzbHVLctCHHg-1" style="edgeStyle=orthogonalEdgeStyle;rounded=0;orthogonalLoop=1;jettySize=auto;html=1;exitX=0.5;exitY=1;exitDx=0;exitDy=0;" edge="1" parent="1" source="vbUF4UBIb49mHJWvgmol-1" target="vbUF4UBIb49mHJWvgmol-1">
          <mxGeometry relative="1" as="geometry" />
        </mxCell>
      </root>
    </mxGraphModel>
  </diagram>
</mxfile>
